<?xml version="1.0" encoding="UTF-8"?>
<svg xmlns="http://www.w3.org/2000/svg" version="1.1" viewBox="0 0 75.1 100">
  <defs>
    <style>
      .cls-1 {
        fill: #fff;
      }
    </style>
  </defs>
  <!-- Generator: Adobe Illustrator 28.7.1, SVG Export Plug-In . SVG Version: 1.2.0 Build 142)  -->
  <g>
    <g id="Camada_1">
      <g>
        <path class="cls-1" d="M10,55.1v-.2c0,0,0,0,0,.2Z"/>
        <path class="cls-1" d="M65,37c-1.8-1.4-5.8-.3-5.8-.3l-28.2,8.8s-3.4-2.1-12,1c-1.7.6-9.7,3.9-9,8.5l.2.3s0,0,0-.1l5.2,10.3c3.4,3.6,9.9,1.4,11.9.7,8.3-3.6,7.9-8.1,7.9-8.1l-1.8-8.5,29.5-9.3c3.1-1,2.4-2.7,2.3-3.3ZM29.9,51.7h0c-2.4,2.2-6.3,3.7-7.5,4.2-10.5,3-11.4-1-11.4-1,0,0-.7-4.3,8.2-7.6.4-.1,5.4-2,9.2-1.5h0s.8,0,1.6.4c0,0,.2,0,.3.1,0,0,0,0,.1,0,.5.3,1,.8,1.3,1.5.7,2.1-1.9,3.9-1.9,3.9Z"/>
      </g>
    </g>
  </g>
</svg>