<?xml version="1.0" encoding="UTF-8"?>
<svg id="Camada_1" xmlns="http://www.w3.org/2000/svg" version="1.1" viewBox="0 0 1822.2 637.4">
  <!-- Generator: Adobe Illustrator 29.4.0, SVG Export Plug-In . SVG Version: 2.1.0 Build 152)  -->
  <defs>
    <style>
      .st0 {
        fill-rule: evenodd;
      }

      .st0, .st1 {
        fill: #fff;
      }
    </style>
  </defs>
  <g>
    <path class="st1" d="M605.4,284.1c0,49.8-37.5,86-87.9,86h-35.5v65.5h-65.5v-237.3h101c50.5,0,87.9,36,87.9,85.7ZM538.2,284.3c0-16.9-11.3-28.8-28.6-28.8h-27.7v57.6h27.7c17.2,0,28.6-11.9,28.6-28.8Z"/>
    <path class="st1" d="M612,344.2c0-56.8,43-97.5,102.6-97.5s102.7,40.8,102.7,97.5-43.1,97.5-102.7,97.5-102.6-41-102.6-97.5ZM754.1,344.2c0-24.1-16.5-40.9-39.5-40.9s-39.5,16.7-39.5,40.9,16.5,40.9,39.5,40.9,39.5-16.7,39.5-40.9Z"/>
    <path class="st1" d="M1020.7,252.6l-76.7,174.9c-24.7,56-47.4,76.3-94.6,76.3h-21.6v-54.2h17.3c24.1,0,31.4-6.3,40-29.1l-75.7-168h68.5l38.9,100.8,36.2-100.8h67.7Z"/>
    <path class="st1" d="M1165.8,380.5v55.2h-43.4c-40.5,0-65.1-24.7-65.1-65.4v-69.1h-33.5v-14.8l82-87.3h12.9v53.5h46v48.6h-44.4v58.3c0,13.1,7.9,21,21.2,21h24.2Z"/>
    <path class="st1" d="M1380.1,252.4v183.1h-48.7l-5.4-12.9c-15,12.2-34,19.1-55.3,19.1-56,0-96-40.8-96-97.7s40-97.1,96-97.1,40.8,7.2,55.9,19.7l6.5-14.2h47ZM1320.1,344.1c0-23.8-17.3-41.6-41-41.6s-41,17.9-41,41.6,17.4,41.8,41,41.8,41-17.8,41-41.8Z"/>
    <path class="st1" d="M1530.7,251.7v57.7h-24.5c-22.3,0-31.7,9.8-31.7,33.1v93.1h-63.1v-183.1h42.3l9.8,20.3c12.9-14.9,28.6-21.2,50.4-21.2h16.7Z"/>
    <path class="st1" d="M1738.2,252.4v183.1h-48.8l-5.4-12.9c-15,12.2-34,19.1-55.3,19.1-56,0-96-40.8-96-97.7s40-97.1,96-97.1,40.8,7.2,55.9,19.7l6.5-14.2h47ZM1678.2,344.1c0-23.8-17.4-41.6-41-41.6s-41,17.9-41,41.6,17.4,41.8,41,41.8,41-17.8,41-41.8Z"/>
  </g>
  <g>
    <path class="st0" d="M312.4,451c31.4,2,35-9.7,13-33.9,22-.2,28.9-9.2,17.7-28.7-5.7-10.2-8.2-20.5-9.3-30.7-19.4,11.1-39.5,17.2-60.4,17.4,37.1-23.7,66.4-25.4,67.1-35,1.2-4.4-3.7-30-9.2-45-26.5,6.7-77.9,41.4-78.7,38.9-4.5-2.7,71.1-49.5,71.6-60.1,2-9.7-13.1-32.9-21.6-48.2-20,17.8-53.2,54.8-62.9,53.4-3.9-4.2,36-44.2,49.2-66.4,4.4-14.4-18.2-32.2-27.8-46-4.7,1.5-22.2,42.2-37.3,56.7,2.4-10.6,4.9-20.8,8.7-28.2,28.9-56.5,0-50.6-17.1-74.1-2.2-2.4,5.2-28.9-15.2-40.8,17.2,132.4,30.4,260.5,23.2,382.9-4.5,64.5-31.9,85.3-16.7,92.8,26.2,10.8,20.9-47.1,22.4-70.9,39.2,29.7,60.5,42.3,78.2-2.1,19.7,1.4,25.2-22.6,5.2-31.9Z"/>
    <path class="st0" d="M89.4,315.1c-3.8,4.7-6,17-5.1,42.8,27.1,14.3,86.4,6.4,84.4,11.9-3.3,5.5-55.7,8.2-83.2,1.7-1,16.7,1.2,33.6,8.1,50.7,6.9,5.9,34.5,6.3,76.5,5.8-19.7,18-72.1,1.7-72.8,8.7-1.2,81.7,105.4,93.2,117.4,6.4,5.8-120.8-4-239.9-19-358.4l-18.7,41.4c-5,12.1,7.9,45.5,20.9,68.3-12.4-10.3-23.3-26.6-33.2-46.8-17.3,21.2-26.5,36.7-24,43.6,11.7,18.1,50.6,51.3,50.6,50.3-5.1,6.6-39-12.2-62-35.3-9.9,12.5-16.1,29.1-14.9,33.4-.2,7.9,48.6,37.9,45.2,38.5-4.3,3.4-31.7-5.2-56.8-23.4-6.3,13.8-17.2,43.1-13.7,45.7.3,8.4,80.8,30.1,87.6,30.3-.9,3.9-47.4.6-87.4-15.7Z"/>
  </g>
</svg>