<?xml version="1.0" encoding="UTF-8"?>
<svg xmlns="http://www.w3.org/2000/svg" version="1.1" viewBox="0 0 75.1 100">
  <defs>
    <style>
      .cls-1 {
        fill: #fff;
      }
    </style>
  </defs>
  <!-- Generator: Adobe Illustrator 28.7.1, SVG Export Plug-In . SVG Version: 1.2.0 Build 142)  -->
  <g>
    <g id="Camada_1">
      <path class="cls-1" d="M45.1,42.3c-4.6-3.7-6.8-4.3-9-4.3-7.1-.3-27.1,20.7-27.1,20.7,32.3,8.4,57,2.2,57,2.2-1.2-3.5-16.3-15-20.9-18.6ZM20.3,58.4c-.7.1-1.3-.3-1.4-1-.1-.7.3-1.3,1-1.4s1.3.3,1.4,1c.1.7-.3,1.3-1,1.4ZM22.7,52.7c-.5,0-1-.2-1.1-.7,0-.5.2-1,.7-1.1.5,0,1,.2,1.1.7,0,.5-.2,1-.7,1.1ZM26.2,60c-.5,0-1-.2-1.1-.7,0-.5.2-1,.7-1.1.5,0,1,.2,1.1.7,0,.5-.2,1-.7,1.1ZM28.6,54c-.7.1-1.3-.3-1.4-1-.1-.7.3-1.3,1-1.4s1.3.3,1.4,1c.1.7-.3,1.3-1,1.4ZM32.1,45.1c0-.5.2-1,.7-1,.5,0,1,.2,1,.7,0,.5-.2,1-.7,1-.5,0-1-.2-1-.7ZM33.7,49.1c.4,0,.9.2.9.7,0,.4-.2.9-.7.9-.4,0-.9-.2-.9-.7s.2-.9.7-.9ZM34.7,58.3c-.7.1-1.3-.3-1.4-1-.1-.7.3-1.3,1-1.4s1.3.3,1.4,1c.1.7-.3,1.3-1,1.4ZM40.5,45.3c-.5,0-1-.2-1-.7,0-.5.2-1,.7-1,.5,0,1,.2,1,.7,0,.5-.2,1-.7,1ZM42.1,60.1c-.4,0-.7-.2-.8-.5s.2-.7.5-.8.7.2.8.5-.2.7-.5.8ZM42.1,53.3c-.4,0-.9-.2-.9-.7,0-.4.2-.9.7-.9.4,0,.9.2.9.7,0,.4-.2.9-.7.9ZM51.8,49.9c.4,0,.7.2.8.5s-.2.7-.5.8-.7-.2-.8-.5.2-.7.5-.8ZM46.3,57.1c-.5.1-1.1-.3-1.2-.8-.1-.5.3-1.1.8-1.2s1.1.3,1.2.8c.1.5-.3,1.1-.8,1.2ZM49.5,55.5c-.1-.6.3-1.2.9-1.3.6-.1,1.2.3,1.3.9.1.6-.3,1.2-.9,1.3-.6.1-1.2-.3-1.3-.9ZM51.9,61c-.5,0-1-.2-1.1-.7,0-.5.2-1,.7-1.1s1,.2,1.1.7c0,.5-.2,1-.7,1.1ZM54.3,53.9c0-.4.2-.9.7-1,.4,0,.9.2,1,.7,0,.4-.2.9-.7,1-.4,0-.9-.2-1-.7ZM56.4,58.8c-.4,0-.9-.2-1-.7,0-.4.2-.9.7-1,.4,0,.9.2,1,.7,0,.4-.2.9-.7,1Z"/>
    </g>
  </g>
</svg>