<?xml version="1.0" encoding="utf-8"?>
<!-- Generator: Adobe Illustrator 25.2.3, SVG Export Plug-In . SVG Version: 6.00 Build 0)  -->
<svg version="1.1" id="Camada_1" xmlns="http://www.w3.org/2000/svg" xmlns:xlink="http://www.w3.org/1999/xlink" x="0px" y="0px"
	 viewBox="0 0 75.1 100" style="enable-background:new 0 0 75.1 100;" xml:space="preserve">
<style type="text/css">
	.st0{fill-rule:evenodd;clip-rule:evenodd;fill:#FFFFFF;}
</style>
<g>
	<path class="st0" d="M23.7,27.4v51.3c15.4,4.9,27.8-0.4,27.8-0.4v-51C34.5,26.3,23.7,27.4,23.7,27.4z M30.3,57.2
		c0-0.4,3.2,0.6,4.4-0.5c-2.6,0-4.2,0-4.7-0.4c-0.4-1-0.6-2.1-0.5-3.1c1.7,0.4,4.9,0.2,5.1-0.1c0.1-0.3-3.5,0.1-5.1-0.7
		c-0.1-1.6,0.1-2.3,0.3-2.6c2.5,1,5.4,1.2,5.4,0.9c0.3,0.2-5.3-1.3-5.4-1.8c-0.2-0.2,0.5-1.9,0.8-2.8c1.5,1.1,3.2,1.6,3.5,1.4
		c0.2,0-2.8-1.9-2.8-2.3c-0.1-0.3,0.3-1.3,0.9-2c1.4,1.4,3.5,2.6,3.8,2.2c0,0.1-2.4-2-3.1-3.1c-0.2-0.4,0.4-1.4,1.5-2.7
		c0.6,1.2,1.3,2.2,2,2.9c-0.8-1.4-1.6-3.4-1.3-4.2l1.1-2.5c0.9,7.2,1.5,14.5,1.2,21.9C36.7,62.9,30.2,62.2,30.3,57.2z M44.2,56
		c1.3,1.5,1.1,2.2-0.8,2.1c1.2,0.6,0.9,2-0.3,1.9c-1.1,2.7-2.4,1.9-4.8,0.1c-0.1,1.5,0.2,5-1.4,4.3c-0.9-0.5,0.7-1.7,1-5.7
		c0.4-7.5-0.4-15.3-1.4-23.4c1.2,0.7,0.8,2.3,0.9,2.5c1,1.4,2.8,1.1,1,4.5c-0.2,0.5-0.4,1.1-0.5,1.7c0.9-0.9,2-3.4,2.3-3.5
		c0.6,0.8,2,1.9,1.7,2.8c-0.8,1.3-3.2,3.8-3,4c0.6,0.1,2.6-2.2,3.8-3.3c0.5,0.9,1.4,2.3,1.3,2.9c0,0.7-4.6,3.5-4.4,3.7
		c0.1,0.2,3.2-2,4.8-2.4c0.3,0.9,0.6,2.5,0.6,2.7c0,0.6-1.8,0.7-4.1,2.1c1.3,0,2.5-0.4,3.7-1.1c0.1,0.6,0.2,1.2,0.6,1.9
		C46,55.4,45.6,56,44.2,56z"/>
	<path id="Forma_2_copiar_9_3_" class="st0" d="M22.9,20.5c9.7-1.7,19.7-1.7,29.4,0v6.2c-9.8-0.8-19.6-0.8-29.4,0V20.5z"/>
</g>
</svg>
