<?xml version="1.0" encoding="utf-8"?>
<!-- Generator: Adobe Illustrator 25.2.3, SVG Export Plug-In . SVG Version: 6.00 Build 0)  -->
<svg version="1.1" id="Camada_1" xmlns="http://www.w3.org/2000/svg" xmlns:xlink="http://www.w3.org/1999/xlink" x="0px" y="0px"
	 viewBox="0 0 20 20" style="enable-background:new 0 0 20 20;" xml:space="preserve">
<style type="text/css">
	.st0{fill:#FFFFFF;}
</style>
<g>
	<g>
		<path class="st0" d="M19.95,5.88c-0.05-1.06-0.22-1.79-0.46-2.43c-0.25-0.67-0.64-1.27-1.16-1.77c-0.5-0.51-1.11-0.9-1.77-1.15
			c-0.64-0.25-1.36-0.42-2.43-0.46C13.06,0.01,12.72,0,10,0C7.29,0,6.95,0.01,5.88,0.06C4.82,0.11,4.09,0.28,3.46,0.52
			C2.78,0.78,2.18,1.17,1.68,1.68c-0.51,0.5-0.9,1.11-1.15,1.77C0.28,4.09,0.11,4.81,0.06,5.88C0.01,6.95,0,7.29,0,10
			c0,2.72,0.01,3.06,0.06,4.12c0.05,1.06,0.22,1.79,0.47,2.43c0.25,0.67,0.65,1.27,1.16,1.77c0.5,0.51,1.11,0.9,1.77,1.15
			c0.64,0.25,1.36,0.42,2.43,0.46C6.94,19.99,7.28,20,10,20c2.72,0,3.06-0.01,4.12-0.06c1.06-0.05,1.79-0.22,2.43-0.46
			c1.34-0.52,2.41-1.58,2.93-2.93c0.25-0.64,0.42-1.36,0.46-2.43C19.99,13.06,20,12.72,20,10C20,7.29,19.99,6.95,19.95,5.88
			L19.95,5.88z M18.15,14.05c-0.04,0.98-0.21,1.5-0.34,1.86c-0.34,0.87-1.03,1.56-1.9,1.9c-0.35,0.14-0.88,0.3-1.86,0.34
			c-1.05,0.05-1.37,0.06-4.04,0.06c-2.67,0-2.99-0.01-4.04-0.06c-0.98-0.04-1.5-0.21-1.86-0.34c-0.43-0.16-0.83-0.41-1.15-0.75
			c-0.33-0.32-0.59-0.72-0.75-1.15c-0.14-0.35-0.3-0.88-0.34-1.86c-0.05-1.05-0.06-1.37-0.06-4.04c0-2.67,0.01-2.99,0.06-4.04
			c0.04-0.98,0.21-1.5,0.34-1.86c0.16-0.43,0.41-0.83,0.75-1.15c0.32-0.33,0.71-0.59,1.15-0.75C4.47,2.08,5,1.92,5.97,1.88
			c1.05-0.05,1.37-0.06,4.04-0.06c2.67,0,2.99,0.01,4.04,0.06c0.98,0.04,1.5,0.21,1.86,0.34c0.43,0.16,0.83,0.41,1.15,0.75
			c0.33,0.32,0.59,0.72,0.75,1.15c0.14,0.35,0.3,0.88,0.34,1.86c0.05,1.05,0.06,1.37,0.06,4.04C18.2,12.68,18.19,12.99,18.15,14.05
			L18.15,14.05z M18.15,14.05"/>
	</g>
	<path class="st0" d="M10,4.86c-2.84,0-5.14,2.3-5.14,5.14c0,2.84,2.3,5.14,5.14,5.14c2.84,0,5.14-2.3,5.14-5.14
		C15.14,7.17,12.84,4.86,10,4.86L10,4.86z M10,13.33c-1.84,0-3.33-1.49-3.33-3.33c0-1.84,1.49-3.33,3.33-3.33
		c1.84,0,3.33,1.49,3.33,3.33C13.34,11.84,11.84,13.33,10,13.33L10,13.33z M10,13.33"/>
	<path class="st0" d="M16.54,4.66c0,0.66-0.54,1.2-1.2,1.2c-0.66,0-1.2-0.54-1.2-1.2c0-0.66,0.54-1.2,1.2-1.2
		C16.01,3.46,16.54,4,16.54,4.66L16.54,4.66z M16.54,4.66"/>
</g>
</svg>
